<?xml version="1.0" encoding="UTF-8" standalone="no"?>
<!DOCTYPE svg PUBLIC "-//W3C//DTD SVG 1.1//EN" "http://www.w3.org/Graphics/SVG/1.1/DTD/svg11.dtd">
<svg version="1.1" xmlns="http://www.w3.org/2000/svg" xmlns:xlink="http://www.w3.org/1999/xlink" preserveAspectRatio="xMidYMid meet" viewBox="0 0 640 640" width="640" height="640"><defs><path d="M618.52 29.47C630.38 29.47 640 39.09 640 50.96C640 168.76 640 500.71 640 618.52C640 630.38 630.38 640 618.52 640C495.45 640 147.71 640 24.64 640C12.78 640 3.16 630.38 3.16 618.52C3.16 500.71 3.16 168.76 3.16 50.96C3.16 39.09 12.78 29.47 24.64 29.47C147.71 29.47 495.45 29.47 618.52 29.47Z" id="aYGqmIONp"></path><path d="M305.45 68.72L309.16 69.09L312.83 69.59L316.46 70.24L320.03 71.03L323.55 71.94L327.01 72.99L330.41 74.17L333.75 75.46L337.02 76.89L340.22 78.43L343.35 80.08L346.41 81.85L349.39 83.73L352.29 85.71L355.11 87.8L357.84 90L360.48 92.29L363.02 94.67L365.47 97.15L367.83 99.72L370.08 102.38L372.23 105.12L374.27 107.94L376.2 110.84L378.02 113.81L379.72 116.86L381.3 119.98L382.76 123.16L384.1 126.41L385.3 129.72L386.38 133.09L387.32 136.51L388.13 139.99L388.79 143.51L389.32 147.08L389.69 150.7L389.92 154.36L390 158.05L389.92 161.75L389.69 165.41L389.32 169.05L388.79 172.66L388.13 176.26L387.32 179.84L386.38 183.42L385.3 186.98L384.1 190.55L382.76 194.12L381.3 197.69L379.72 201.28L378.02 204.88L376.2 208.5L374.27 212.14L372.23 215.82L370.08 219.52L367.83 223.26L365.47 227.04L363.02 230.86L360.48 234.74L357.84 238.66L355.11 242.65L352.29 246.69L349.39 250.8L346.41 254.98L343.35 259.23L340.22 263.56L337.02 267.98L333.75 272.48L330.41 277.07L327.01 281.76L323.55 286.54L320.03 291.43L316.46 296.42L312.83 301.53L309.16 306.75L305.45 312.1L301.69 317.56L297.89 323.16L294.1 317.56L290.34 312.1L286.63 306.75L282.95 301.53L279.33 296.42L275.76 291.43L272.24 286.54L268.78 281.76L265.38 277.07L262.04 272.48L258.77 267.98L255.57 263.56L252.44 259.23L249.38 254.98L246.4 250.8L243.5 246.69L240.68 242.65L237.95 238.66L235.31 234.74L232.77 230.86L230.31 227.04L227.96 223.26L225.71 219.52L223.56 215.82L221.52 212.14L219.59 208.5L217.77 204.88L216.07 201.28L214.49 197.69L213.03 194.12L211.69 190.55L210.49 186.98L209.41 183.42L208.47 179.84L207.66 176.26L206.99 172.66L206.47 169.05L206.09 165.41L205.87 161.75L205.79 158.05L205.87 154.36L206.09 150.7L206.47 147.08L206.99 143.51L207.66 139.99L208.47 136.51L209.41 133.09L210.49 129.72L211.69 126.41L213.03 123.16L214.49 119.98L216.07 116.86L217.77 113.81L219.59 110.84L221.52 107.94L223.56 105.12L225.71 102.38L227.96 99.72L230.31 97.15L232.77 94.67L235.31 92.29L237.95 90L240.68 87.8L243.5 85.71L246.4 83.73L249.38 81.85L252.44 80.08L255.57 78.43L258.77 76.89L262.04 75.46L265.38 74.17L268.78 72.99L272.24 71.94L275.76 71.03L279.33 70.24L282.95 69.59L286.63 69.09L290.34 68.72L294.1 68.5L297.89 68.42L301.69 68.5L305.45 68.72ZM294.32 111.02L292.56 111.19L290.82 111.43L289.1 111.74L287.41 112.11L285.74 112.55L284.1 113.04L282.49 113.6L280.91 114.21L279.36 114.89L277.84 115.62L276.36 116.4L274.91 117.24L273.5 118.13L272.13 119.07L270.79 120.06L269.5 121.1L268.25 122.18L267.04 123.31L265.88 124.49L264.77 125.7L263.7 126.96L262.68 128.26L261.72 129.6L260.8 130.97L259.94 132.38L259.14 133.82L258.39 135.3L257.69 136.81L257.06 138.35L256.49 139.91L255.98 141.51L255.53 143.13L255.15 144.78L254.84 146.45L254.59 148.14L254.41 149.85L254.3 151.58L254.27 153.33L254.3 155.08L254.41 156.82L254.59 158.53L254.84 160.22L255.15 161.89L255.53 163.54L255.98 165.16L256.49 166.75L257.06 168.32L257.69 169.86L258.39 171.37L259.14 172.84L259.94 174.29L260.8 175.7L261.72 177.07L262.68 178.41L263.7 179.71L264.77 180.96L265.88 182.18L267.04 183.35L268.25 184.48L269.5 185.57L270.79 186.61L272.13 187.6L273.5 188.54L274.91 189.43L276.36 190.27L277.84 191.05L279.36 191.78L280.91 192.45L282.49 193.07L284.1 193.63L285.74 194.12L287.41 194.56L289.1 194.93L290.82 195.23L292.56 195.47L294.32 195.65L296.1 195.75L297.89 195.79L299.69 195.75L301.47 195.65L303.23 195.47L304.97 195.23L306.69 194.93L308.38 194.56L310.05 194.12L311.68 193.63L313.3 193.07L314.88 192.45L316.43 191.78L317.94 191.05L319.43 190.27L320.88 189.43L322.29 188.54L323.66 187.6L325 186.61L326.29 185.57L327.54 184.48L328.74 183.35L329.91 182.18L331.02 180.96L332.09 179.71L333.11 178.41L334.07 177.07L334.99 175.7L335.85 174.29L336.65 172.84L337.4 171.37L338.09 169.86L338.73 168.32L339.3 166.75L339.81 165.16L340.26 163.54L340.64 161.89L340.95 160.22L341.2 158.53L341.38 156.82L341.49 155.08L341.52 153.33L341.49 151.58L341.38 149.85L341.2 148.14L340.95 146.45L340.64 144.78L340.26 143.13L339.81 141.51L339.3 139.91L338.73 138.35L338.09 136.81L337.4 135.3L336.65 133.82L335.85 132.38L334.99 130.97L334.07 129.6L333.11 128.26L332.09 126.96L331.02 125.7L329.91 124.49L328.74 123.31L327.54 122.18L326.29 121.1L325 120.06L323.66 119.07L322.29 118.13L320.88 117.24L319.43 116.4L317.94 115.62L316.43 114.89L314.88 114.21L313.3 113.6L311.68 113.04L310.05 112.55L308.38 112.11L306.69 111.74L304.97 111.43L303.23 111.19L301.47 111.02L299.69 110.91L297.89 110.88L296.1 110.91L294.32 111.02Z" id="a27fK1B1Qq"></path><path d="M320.92 369.21L228.82 369.21L228.82 468.68L366.97 468.68L366.97 410.66L390 410.66L390 485.26L205.79 485.26L205.79 352.63L320.92 352.63L320.92 369.21ZM316.41 428.97L316.42 428.98L289.73 448.19L240.3 412.6L266.99 393.39L289.73 409.76L351.8 365.07L378.49 384.28L316.41 428.97Z" id="b1eR4YoT2w"></path></defs><g><g><g><use xlink:href="#aYGqmIONp" opacity="1" fill="#ffffff" fill-opacity="1"></use></g><g><use xlink:href="#a27fK1B1Qq" opacity="1" fill="#1765fc" fill-opacity="1"></use></g><g><use xlink:href="#b1eR4YoT2w" opacity="1" fill="#1765fc" fill-opacity="1"></use></g></g></g></svg>