<?xml version="1.0" encoding="UTF-8" standalone="no"?>
<!DOCTYPE svg PUBLIC "-//W3C//DTD SVG 1.1//EN" "http://www.w3.org/Graphics/SVG/1.1/DTD/svg11.dtd">
<svg version="1.1" xmlns="http://www.w3.org/2000/svg" xmlns:xlink="http://www.w3.org/1999/xlink" preserveAspectRatio="xMidYMid meet" viewBox="0 0 640 640" width="640" height="640"><defs><path d="M619.04 0C630.61 0 640 9.39 640 20.96C640 135.93 640 459.86 640 574.83C640 586.4 630.61 595.79 619.04 595.79C495.23 595.79 144.77 595.79 20.96 595.79C9.39 595.79 0 586.4 0 574.83C0 459.86 0 135.93 0 20.96C0 9.39 9.39 0 20.96 0C144.77 0 495.23 0 619.04 0Z" id="g1Axwkf6CI"></path><path d="M138.69 311.59L138.88 311.61L139.06 311.63L139.23 311.66L139.4 311.7L139.56 311.74L139.72 311.79L139.87 311.85L140.02 311.91L140.17 311.98L140.31 312.05L140.44 312.13L140.58 312.21L140.7 312.3L140.83 312.39L140.95 312.49L141.07 312.59L141.18 312.7L141.29 312.81L141.4 312.93L141.51 313.05L141.61 313.18L141.71 313.3L141.81 313.44L141.91 313.57L142 313.71L142.09 313.86L142.18 314L142.27 314.15L142.36 314.3L142.44 314.46L142.53 314.62L142.61 314.78L142.7 314.94L142.78 315.11L142.86 315.28L142.94 315.45L143.02 315.62L143.1 315.79L145.63 322.47L230.39 322.47L230.57 322.47L230.75 322.48L230.93 322.5L231.1 322.53L231.27 322.57L231.44 322.61L231.6 322.67L231.77 322.73L231.93 322.79L232.08 322.87L232.24 322.95L232.39 323.03L232.54 323.13L232.68 323.23L232.82 323.33L232.96 323.45L233.09 323.57L233.22 323.69L233.34 323.82L233.46 323.96L233.58 324.1L233.69 324.24L233.8 324.39L233.9 324.55L233.99 324.71L234.09 324.87L234.17 325.04L234.25 325.22L234.33 325.39L234.4 325.57L234.46 325.76L234.52 325.95L234.57 326.14L234.61 326.33L234.65 326.53L234.68 326.73L234.7 326.93L234.72 327.14L234.73 327.34L234.74 327.55L234.74 419.12L234.73 419.33L234.72 419.54L234.7 419.75L234.68 419.95L234.65 420.15L234.61 420.35L234.57 420.54L234.52 420.73L234.46 420.92L234.4 421.1L234.33 421.28L234.25 421.46L234.17 421.63L234.09 421.8L233.99 421.97L233.9 422.13L233.8 422.28L233.69 422.43L233.58 422.58L233.46 422.72L233.34 422.86L233.22 422.99L233.09 423.11L232.96 423.23L232.82 423.34L232.68 423.45L232.54 423.55L232.39 423.64L232.24 423.73L232.08 423.81L231.93 423.88L231.77 423.95L231.6 424.01L231.44 424.06L231.27 424.11L231.1 424.14L230.93 424.17L230.75 424.19L230.57 424.21L230.39 424.21L100.13 424.21L99.95 424.21L99.78 424.19L99.6 424.17L99.43 424.14L99.26 424.11L99.09 424.06L98.92 424.01L98.76 423.95L98.6 423.88L98.44 423.81L98.29 423.73L98.14 423.64L97.99 423.55L97.85 423.45L97.7 423.34L97.57 423.23L97.44 423.11L97.31 422.99L97.18 422.86L97.06 422.72L96.95 422.58L96.84 422.43L96.73 422.28L96.63 422.13L96.53 421.97L96.44 421.8L96.35 421.63L96.27 421.46L96.2 421.28L96.13 421.1L96.07 420.92L96.01 420.73L95.96 420.54L95.92 420.35L95.88 420.15L95.85 419.95L95.82 419.75L95.8 419.54L95.79 419.33L95.79 419.12L95.79 327.55L95.79 327.34L95.8 327.14L95.82 326.93L95.85 326.73L95.88 326.53L95.92 326.33L95.96 326.14L96.01 325.95L96.07 325.76L96.13 325.57L96.2 325.39L96.27 325.22L96.35 325.04L96.44 324.87L96.53 324.71L96.63 324.55L96.73 324.39L96.84 324.24L96.95 324.1L97.06 323.96L97.18 323.82L97.31 323.69L97.44 323.57L97.57 323.45L97.7 323.33L97.85 323.23L97.99 323.13L98.14 323.03L98.29 322.95L98.44 322.87L98.6 322.79L98.76 322.73L98.92 322.67L99.09 322.61L99.26 322.57L99.43 322.53L99.6 322.5L99.78 322.48L99.95 322.47L100.13 322.47L102.22 322.47L104.75 315.79L104.81 315.62L104.87 315.45L104.93 315.28L105 315.11L105.07 314.94L105.14 314.78L105.21 314.62L105.29 314.46L105.37 314.3L105.45 314.15L105.54 314L105.63 313.86L105.72 313.71L105.81 313.57L105.91 313.44L106.01 313.3L106.11 313.18L106.22 313.05L106.33 312.93L106.44 312.81L106.56 312.7L106.68 312.59L106.81 312.49L106.94 312.39L107.07 312.3L107.2 312.21L107.34 312.13L107.49 312.05L107.64 311.98L107.79 311.91L107.94 311.85L108.1 311.79L108.27 311.74L108.44 311.7L108.61 311.66L108.79 311.63L108.97 311.61L109.16 311.59L109.35 311.58L109.55 311.58L138.31 311.58L138.5 311.58L138.69 311.59Z" id="dN1EZrKvU"></path><path d="M511.91 92.81L513.88 93.03L515.83 93.33L517.76 93.72L519.66 94.18L521.53 94.73L523.37 95.35L525.17 96.05L526.95 96.82L528.69 97.67L530.39 98.58L532.05 99.57L533.68 100.62L535.26 101.74L536.8 102.92L538.3 104.17L539.75 105.47L541.15 106.83L542.51 108.25L543.81 109.73L545.06 111.26L546.26 112.84L547.4 114.47L548.48 116.15L549.51 117.87L550.47 119.64L551.38 121.46L552.22 123.31L553 125.21L553.71 127.14L554.35 129.11L554.92 131.11L555.42 133.15L555.85 135.22L556.2 137.31L556.48 139.44L556.68 141.59L556.8 143.77L556.84 145.96L556.8 148.16L556.68 150.34L556.48 152.51L556.2 154.66L555.85 156.8L555.42 158.93L554.92 161.06L554.35 163.18L553.71 165.3L553 167.43L552.22 169.55L551.38 171.69L550.47 173.83L549.51 175.98L548.48 178.15L547.4 180.34L546.26 182.54L545.06 184.77L543.81 187.02L542.51 189.29L541.15 191.6L539.75 193.93L538.3 196.3L536.8 198.71L535.26 201.15L533.68 203.64L532.05 206.17L530.39 208.75L528.69 211.38L526.95 214.05L525.17 216.79L523.37 219.57L521.53 222.42L519.66 225.33L517.76 228.3L515.83 231.34L513.88 234.45L511.91 237.63L509.91 240.88L507.89 244.21L505.88 240.88L503.88 237.63L501.91 234.45L499.96 231.34L498.03 228.3L496.13 225.33L494.26 222.42L492.42 219.57L490.62 216.79L488.84 214.05L487.1 211.38L485.4 208.75L483.74 206.17L482.11 203.64L480.53 201.15L478.99 198.71L477.49 196.3L476.04 193.93L474.64 191.6L473.28 189.29L471.98 187.02L470.73 184.77L469.53 182.54L468.39 180.34L467.31 178.15L466.28 175.98L465.31 173.83L464.41 171.69L463.57 169.55L462.79 167.43L462.08 165.3L461.44 163.18L460.87 161.06L460.37 158.93L459.94 156.8L459.59 154.66L459.31 152.51L459.11 150.34L458.99 148.16L458.95 145.96L458.99 143.77L459.11 141.59L459.31 139.44L459.59 137.31L459.94 135.22L460.37 133.15L460.87 131.11L461.44 129.11L462.08 127.14L462.79 125.21L463.57 123.31L464.41 121.46L465.31 119.64L466.28 117.87L467.31 116.15L468.39 114.47L469.53 112.84L470.73 111.26L471.98 109.73L473.28 108.25L474.64 106.83L476.04 105.47L477.49 104.17L478.99 102.92L480.53 101.74L482.11 100.62L483.74 99.57L485.4 98.58L487.1 97.67L488.84 96.82L490.62 96.05L492.42 95.35L494.26 94.73L496.13 94.18L498.03 93.72L499.96 93.33L501.91 93.03L503.88 92.81L505.88 92.68L507.89 92.63L509.91 92.68L511.91 92.81ZM505.99 117.98L505.06 118.08L504.13 118.23L503.22 118.41L502.32 118.63L501.44 118.89L500.57 119.18L499.71 119.51L498.87 119.88L498.05 120.28L497.24 120.71L496.45 121.18L495.68 121.68L494.93 122.21L494.2 122.77L493.49 123.36L492.81 123.98L492.14 124.62L491.5 125.29L490.88 125.99L490.29 126.72L489.72 127.47L489.18 128.24L488.67 129.03L488.18 129.85L487.73 130.69L487.3 131.55L486.9 132.43L486.53 133.32L486.2 134.24L485.89 135.17L485.62 136.12L485.38 137.09L485.18 138.07L485.01 139.06L484.88 140.07L484.79 141.09L484.73 142.12L484.71 143.16L484.73 144.2L484.79 145.23L484.88 146.25L485.01 147.26L485.18 148.25L485.38 149.23L485.62 150.19L485.89 151.14L486.2 152.08L486.53 152.99L486.9 153.89L487.3 154.77L487.73 155.63L488.18 156.47L488.67 157.28L489.18 158.08L489.72 158.85L490.29 159.6L490.88 160.32L491.5 161.02L492.14 161.69L492.81 162.34L493.49 162.96L494.2 163.55L494.93 164.11L495.68 164.64L496.45 165.13L497.24 165.6L498.05 166.04L498.87 166.44L499.71 166.8L500.57 167.13L501.44 167.43L502.32 167.69L503.22 167.91L504.13 168.09L505.06 168.23L505.99 168.34L506.94 168.4L507.89 168.42L508.85 168.4L509.8 168.34L510.73 168.23L511.66 168.09L512.57 167.91L513.47 167.69L514.35 167.43L515.22 167.13L516.08 166.8L516.92 166.44L517.74 166.04L518.55 165.6L519.34 165.13L520.11 164.64L520.86 164.11L521.59 163.55L522.3 162.96L522.98 162.34L523.65 161.69L524.29 161.02L524.91 160.32L525.5 159.6L526.07 158.85L526.61 158.08L527.12 157.28L527.61 156.47L528.06 155.63L528.49 154.77L528.89 153.89L529.26 152.99L529.59 152.08L529.9 151.14L530.17 150.19L530.41 149.23L530.61 148.25L530.78 147.26L530.91 146.25L531 145.23L531.06 144.2L531.08 143.16L531.06 142.12L531 141.09L530.91 140.07L530.78 139.06L530.61 138.07L530.41 137.09L530.17 136.12L529.9 135.17L529.59 134.24L529.26 133.32L528.89 132.43L528.49 131.55L528.06 130.69L527.61 129.85L527.12 129.03L526.61 128.24L526.07 127.47L525.5 126.72L524.91 125.99L524.29 125.29L523.65 124.62L522.98 123.98L522.3 123.36L521.59 122.77L520.86 122.21L520.11 121.68L519.34 121.18L518.55 120.71L517.74 120.28L516.92 119.88L516.08 119.51L515.22 119.18L514.35 118.89L513.47 118.63L512.57 118.41L511.66 118.23L510.73 118.08L509.8 117.98L508.85 117.92L507.89 117.89L506.94 117.92L505.99 117.98Z" id="c3iwXLx8dp"></path><path d="M206.58 58.95C230.57 58.95 250.02 84.16 250.02 115.25C250.02 116.42 249.99 117.6 249.93 118.74C267.26 123.47 280 139.31 280 158.13C280 158.13 280 158.13 280 158.13C280 180.67 261.71 198.95 239.14 198.95C228.89 198.95 146.9 198.95 136.65 198.95C114.09 198.95 95.79 180.67 95.79 158.13C95.79 158.13 95.79 158.13 95.79 158.13C95.79 138.47 109.69 122.06 128.21 118.18C129.87 96.87 143.75 80.24 160.62 80.24C164.33 80.24 167.89 81.04 171.21 82.52C179.1 68.25 192 58.95 206.58 58.95Z" id="a1eIVeii9m"></path><path d="M493.69 308.43L493.8 308.45L493.9 308.47L494 308.49L494.1 308.52L494.19 308.56L494.28 308.6L494.37 308.65L494.45 308.7L494.53 308.75L494.62 308.81L494.69 308.88L494.77 308.95L494.84 309.02L494.91 309.1L494.98 309.18L495.05 309.27L495.11 309.36L495.18 309.45L495.24 309.55L495.3 309.65L495.36 309.76L495.42 309.86L495.47 309.97L495.53 310.09L495.58 310.2L495.63 310.32L495.69 310.45L495.74 310.57L495.79 310.7L495.84 310.83L495.88 310.96L495.93 311.1L495.98 311.23L496.03 311.37L496.07 311.51L496.12 311.65L496.16 311.8L496.21 311.94L498.58 321.08L499.32 321.31L500.96 321.91L502.57 322.58L504.15 323.3L505.7 324.09L505.83 324.16L513.81 319.41L513.94 319.34L514.07 319.27L514.2 319.2L514.33 319.14L514.46 319.07L514.59 319.01L514.71 318.95L514.84 318.89L514.96 318.84L515.08 318.78L515.21 318.73L515.33 318.68L515.45 318.64L515.56 318.59L515.68 318.55L515.8 318.51L515.91 318.48L516.02 318.45L516.14 318.42L516.25 318.4L516.36 318.38L516.47 318.36L516.57 318.35L516.68 318.34L516.78 318.34L516.88 318.34L516.99 318.35L517.08 318.36L517.18 318.37L517.28 318.39L517.38 318.42L517.47 318.45L517.56 318.49L517.65 318.53L517.74 318.58L517.83 318.63L517.91 318.69L518 318.76L518.08 318.83L518.16 318.91L529.77 330.86L529.85 330.94L529.92 331.02L529.99 331.11L530.05 331.2L530.1 331.29L530.15 331.39L530.19 331.48L530.23 331.58L530.26 331.68L530.29 331.78L530.32 331.88L530.33 331.99L530.35 332.09L530.36 332.2L530.36 332.31L530.36 332.42L530.36 332.53L530.35 332.64L530.33 332.76L530.32 332.87L530.3 332.99L530.27 333.11L530.24 333.22L530.21 333.34L530.18 333.46L530.14 333.58L530.09 333.71L530.05 333.83L530 333.95L529.95 334.08L529.89 334.2L529.84 334.32L529.78 334.45L529.71 334.58L529.65 334.7L529.58 334.83L529.51 334.95L529.44 335.08L529.37 335.21L529.29 335.34L524.68 343.53L524.77 343.71L525.54 345.3L526.24 346.93L526.89 348.58L527.47 350.27L527.7 351.04L536.58 353.47L536.72 353.51L536.86 353.54L537 353.58L537.13 353.62L537.27 353.66L537.4 353.7L537.53 353.75L537.66 353.79L537.79 353.84L537.91 353.89L538.03 353.94L538.15 353.99L538.27 354.04L538.38 354.1L538.49 354.15L538.6 354.21L538.7 354.27L538.8 354.34L538.9 354.4L539 354.47L539.09 354.54L539.18 354.61L539.26 354.68L539.34 354.76L539.42 354.83L539.49 354.91L539.55 355L539.62 355.08L539.68 355.17L539.73 355.26L539.78 355.35L539.83 355.44L539.87 355.54L539.9 355.64L539.93 355.74L539.96 355.85L539.97 355.95L539.99 356.06L540 356.17L540 356.29L540 373.18L540 373.3L539.99 373.41L539.97 373.52L539.96 373.62L539.93 373.73L539.9 373.82L539.87 373.92L539.83 374.01L539.78 374.1L539.73 374.19L539.68 374.28L539.62 374.36L539.55 374.44L539.49 374.52L539.42 374.59L539.34 374.67L539.26 374.74L539.18 374.81L539.09 374.87L539 374.94L538.9 375L538.8 375.06L538.7 375.12L538.6 375.18L538.49 375.24L538.38 375.3L538.27 375.35L538.15 375.41L538.03 375.46L537.91 375.51L537.79 375.56L537.66 375.61L537.53 375.66L537.4 375.71L537.27 375.76L537.13 375.81L537 375.86L536.86 375.91L536.72 375.95L536.58 376L527.7 378.44L527.47 379.2L526.89 380.89L526.24 382.55L525.54 384.17L524.77 385.76L524.69 385.93L529.29 394.11L529.37 394.23L529.44 394.36L529.51 394.49L529.58 394.61L529.65 394.74L529.71 394.86L529.78 394.99L529.84 395.12L529.89 395.24L529.95 395.36L530 395.49L530.05 395.61L530.09 395.73L530.14 395.86L530.18 395.98L530.21 396.1L530.24 396.22L530.27 396.33L530.3 396.45L530.32 396.57L530.33 396.68L530.35 396.8L530.36 396.91L530.36 397.02L530.36 397.13L530.36 397.24L530.35 397.35L530.33 397.45L530.32 397.56L530.29 397.66L530.26 397.76L530.23 397.86L530.19 397.96L530.15 398.05L530.1 398.15L530.05 398.24L529.99 398.33L529.92 398.42L529.85 398.5L529.77 398.58L518.16 410.53L518.08 410.61L518 410.68L517.91 410.75L517.83 410.81L517.74 410.86L517.65 410.91L517.56 410.95L517.47 410.99L517.38 411.02L517.28 411.05L517.18 411.07L517.08 411.08L516.99 411.09L516.88 411.1L516.78 411.1L516.68 411.1L516.57 411.09L516.47 411.08L516.36 411.06L516.25 411.04L516.14 411.02L516.02 410.99L515.91 410.96L515.8 410.93L515.68 410.89L515.56 410.85L515.45 410.8L515.33 410.76L515.21 410.71L515.08 410.66L514.96 410.6L514.84 410.55L514.71 410.49L514.59 410.43L514.46 410.37L514.33 410.3L514.2 410.24L514.07 410.17L513.94 410.1L513.81 410.03L505.86 405.3L505.7 405.39L504.15 406.17L502.57 406.9L500.96 407.56L499.32 408.16L498.58 408.4L496.21 417.53L496.16 417.68L496.12 417.82L496.07 417.96L496.03 418.1L495.98 418.24L495.93 418.38L495.88 418.51L495.84 418.64L495.79 418.77L495.74 418.9L495.69 419.03L495.63 419.15L495.58 419.27L495.53 419.39L495.47 419.5L495.42 419.61L495.36 419.72L495.3 419.82L495.24 419.92L495.18 420.02L495.11 420.11L495.05 420.2L494.98 420.29L494.91 420.37L494.84 420.45L494.77 420.52L494.69 420.59L494.62 420.66L494.53 420.72L494.45 420.78L494.37 420.83L494.28 420.87L494.19 420.91L494.1 420.95L494 420.98L493.9 421.01L493.8 421.03L493.69 421.04L493.59 421.05L493.47 421.05L477.05 421.05L476.94 421.05L476.83 421.04L476.72 421.03L476.62 421.01L476.52 420.98L476.42 420.95L476.32 420.91L476.23 420.87L476.14 420.83L476.05 420.78L475.96 420.72L475.88 420.66L475.8 420.59L475.72 420.52L475.64 420.45L475.56 420.37L475.49 420.29L475.42 420.2L475.35 420.11L475.28 420.02L475.22 419.92L475.15 419.82L475.09 419.72L475.03 419.61L474.98 419.5L474.92 419.39L474.87 419.27L474.81 419.15L474.76 419.03L474.72 418.9L474.67 418.77L474.62 418.64L474.58 418.51L474.54 418.38L474.5 418.24L474.46 418.1L474.42 417.96L474.38 417.82L474.35 417.68L474.32 417.53L471.95 408.4L471.21 408.16L469.56 407.56L467.95 406.9L466.37 406.17L464.82 405.39L464.64 405.28L456.72 410L456.6 410.08L456.47 410.15L456.35 410.23L456.23 410.3L456.1 410.37L455.98 410.44L455.86 410.5L455.74 410.56L455.62 410.62L455.49 410.68L455.37 410.73L455.25 410.78L455.14 410.83L455.02 410.87L454.9 410.91L454.78 410.95L454.67 410.98L454.55 411.01L454.44 411.04L454.32 411.06L454.21 411.07L454.1 411.09L453.99 411.1L453.88 411.1L453.78 411.1L453.67 411.1L453.57 411.09L453.46 411.07L453.36 411.06L453.26 411.03L453.17 411L453.07 410.97L452.97 410.93L452.88 410.89L452.79 410.84L452.7 410.78L452.61 410.72L452.53 410.65L452.45 410.58L452.36 410.5L440.75 398.55L440.68 398.47L440.61 398.38L440.54 398.3L440.48 398.21L440.43 398.12L440.38 398.03L440.34 397.93L440.31 397.84L440.28 397.74L440.25 397.64L440.23 397.54L440.22 397.44L440.21 397.34L440.2 397.24L440.2 397.13L440.2 397.02L440.21 396.92L440.22 396.81L440.24 396.69L440.26 396.58L440.28 396.47L440.31 396.35L440.34 396.24L440.37 396.12L440.41 396L440.45 395.88L440.49 395.76L440.53 395.63L440.58 395.51L440.63 395.38L440.68 395.26L440.74 395.13L440.79 395L440.85 394.87L440.91 394.74L440.97 394.61L441.04 394.48L441.1 394.34L441.17 394.21L441.24 394.07L445.83 385.91L445.75 385.76L444.99 384.17L444.28 382.55L443.64 380.89L443.06 379.2L442.83 378.44L433.95 376L433.81 375.95L433.67 375.91L433.53 375.86L433.39 375.81L433.26 375.76L433.13 375.71L433 375.66L432.87 375.61L432.74 375.56L432.62 375.51L432.49 375.46L432.38 375.41L432.26 375.35L432.15 375.3L432.04 375.24L431.93 375.18L431.82 375.12L431.72 375.06L431.62 375L431.53 374.94L431.44 374.87L431.35 374.81L431.27 374.74L431.19 374.67L431.11 374.59L431.04 374.52L430.97 374.44L430.91 374.36L430.85 374.28L430.8 374.19L430.75 374.1L430.7 374.01L430.66 373.92L430.63 373.82L430.6 373.73L430.57 373.62L430.55 373.52L430.54 373.41L430.53 373.3L430.53 373.18L430.53 356.29L430.53 356.17L430.54 356.06L430.55 355.95L430.57 355.85L430.6 355.74L430.63 355.64L430.66 355.54L430.7 355.44L430.75 355.35L430.8 355.26L430.85 355.17L430.91 355.08L430.97 355L431.04 354.91L431.11 354.83L431.19 354.76L431.27 354.68L431.35 354.61L431.44 354.54L431.53 354.47L431.62 354.4L431.72 354.34L431.82 354.27L431.93 354.21L432.04 354.15L432.15 354.1L432.26 354.04L432.38 353.99L432.49 353.94L432.62 353.89L432.74 353.84L432.87 353.79L433 353.75L433.13 353.7L433.26 353.66L433.39 353.62L433.53 353.58L433.67 353.54L433.81 353.51L433.95 353.47L442.83 351.04L443.06 350.27L443.64 348.58L444.28 346.93L444.99 345.3L445.75 343.71L445.84 343.55L441.24 335.37L441.17 335.23L441.1 335.1L441.04 334.96L440.97 334.83L440.91 334.7L440.85 334.57L440.79 334.44L440.74 334.31L440.68 334.18L440.63 334.06L440.58 333.93L440.53 333.81L440.49 333.68L440.45 333.56L440.41 333.44L440.37 333.32L440.34 333.2L440.31 333.09L440.28 332.97L440.26 332.86L440.24 332.75L440.22 332.63L440.21 332.52L440.2 332.42L440.2 332.31L440.2 332.2L440.21 332.1L440.22 332L440.23 331.9L440.25 331.8L440.28 331.7L440.31 331.6L440.34 331.51L440.38 331.41L440.43 331.32L440.48 331.23L440.54 331.14L440.61 331.06L440.68 330.97L440.75 330.89L452.36 318.94L452.45 318.86L452.53 318.79L452.61 318.72L452.7 318.66L452.79 318.6L452.88 318.55L452.97 318.51L453.07 318.47L453.17 318.44L453.26 318.41L453.36 318.38L453.46 318.37L453.57 318.35L453.67 318.34L453.78 318.34L453.88 318.34L453.99 318.34L454.1 318.35L454.21 318.37L454.32 318.38L454.44 318.41L454.55 318.43L454.67 318.46L454.78 318.49L454.9 318.53L455.02 318.57L455.14 318.61L455.25 318.66L455.37 318.71L455.49 318.76L455.62 318.82L455.74 318.88L455.86 318.94L455.98 319L456.1 319.07L456.23 319.14L456.35 319.21L456.47 319.29L456.6 319.36L456.72 319.44L464.67 324.18L464.82 324.09L466.37 323.3L467.95 322.58L469.56 321.91L471.21 321.31L471.95 321.08L474.32 311.94L474.35 311.8L474.38 311.65L474.42 311.51L474.46 311.37L474.5 311.23L474.54 311.1L474.58 310.96L474.62 310.83L474.67 310.7L474.72 310.57L474.76 310.45L474.81 310.32L474.87 310.2L474.92 310.09L474.98 309.97L475.03 309.86L475.09 309.76L475.15 309.65L475.22 309.55L475.28 309.45L475.35 309.36L475.42 309.27L475.49 309.18L475.56 309.1L475.64 309.02L475.72 308.95L475.8 308.88L475.88 308.81L475.96 308.75L476.05 308.7L476.14 308.65L476.23 308.6L476.32 308.56L476.42 308.52L476.52 308.49L476.62 308.47L476.72 308.45L476.83 308.43L476.94 308.42L477.05 308.42L493.47 308.42L493.59 308.42L493.69 308.43ZM483.3 340.18L482.33 340.28L481.38 340.42L480.44 340.6L479.51 340.81L478.59 341.07L477.69 341.35L476.81 341.68L475.94 342.03L475.09 342.43L474.26 342.85L473.44 343.3L472.65 343.79L471.87 344.31L471.12 344.85L470.39 345.43L469.68 346.03L468.99 346.66L468.33 347.32L467.69 348L467.08 348.7L466.49 349.43L465.94 350.19L465.41 350.96L464.9 351.76L464.43 352.58L463.99 353.41L463.58 354.27L463.2 355.15L462.85 356.04L462.54 356.95L462.26 357.88L462.01 358.82L461.8 359.77L461.63 360.74L461.49 361.72L461.4 362.72L461.34 363.72L461.32 364.74L461.34 365.75L461.4 366.76L461.49 367.75L461.63 368.73L461.8 369.7L462.01 370.66L462.26 371.6L462.54 372.52L462.85 373.43L463.2 374.33L463.58 375.2L463.99 376.06L464.43 376.9L464.9 377.72L465.41 378.51L465.94 379.29L466.49 380.04L467.08 380.77L467.69 381.48L468.33 382.16L468.99 382.81L469.68 383.44L470.39 384.05L471.12 384.62L471.87 385.17L472.65 385.68L473.44 386.17L474.26 386.62L475.09 387.05L475.94 387.44L476.81 387.8L477.69 388.12L478.59 388.41L479.51 388.66L480.44 388.87L481.38 389.05L482.33 389.19L483.3 389.29L484.28 389.35L485.26 389.38L486.25 389.35L487.23 389.29L488.19 389.19L489.15 389.05L490.09 388.87L491.02 388.66L491.93 388.41L492.83 388.12L493.72 387.8L494.58 387.44L495.44 387.05L496.27 386.62L497.08 386.17L497.88 385.68L498.65 385.17L499.41 384.62L500.14 384.05L500.85 383.44L501.53 382.81L502.2 382.16L502.83 381.48L503.45 380.77L504.03 380.04L504.59 379.29L505.12 378.51L505.62 377.72L506.1 376.9L506.54 376.06L506.95 375.2L507.33 374.33L507.68 373.43L507.99 372.52L508.27 371.6L508.51 370.66L508.72 369.7L508.9 368.73L509.03 367.75L509.13 366.76L509.19 365.75L509.21 364.74L509.19 363.72L509.13 362.72L509.03 361.72L508.9 360.74L508.72 359.77L508.51 358.82L508.27 357.88L507.99 356.95L507.68 356.04L507.33 355.15L506.95 354.27L506.54 353.41L506.1 352.58L505.62 351.76L505.12 350.96L504.59 350.19L504.03 349.43L503.45 348.7L502.83 348L502.2 347.32L501.53 346.66L500.85 346.03L500.14 345.43L499.41 344.85L498.65 344.31L497.88 343.79L497.08 343.3L496.27 342.85L495.44 342.43L494.58 342.03L493.72 341.68L492.83 341.35L491.93 341.07L491.02 340.81L490.09 340.6L489.15 340.42L488.19 340.28L487.23 340.18L486.25 340.12L485.26 340.1L484.28 340.12L483.3 340.18Z" id="e3wFT6Uh2"></path></defs><g><g><g><use xlink:href="#g1Axwkf6CI" opacity="1" fill="#ffffff" fill-opacity="1"></use></g><g><use xlink:href="#dN1EZrKvU" opacity="1" fill="#1765fc" fill-opacity="1"></use></g><g><use xlink:href="#c3iwXLx8dp" opacity="1" fill="#1765fc" fill-opacity="1"></use></g><g><use xlink:href="#a1eIVeii9m" opacity="1" fill="#1765fc" fill-opacity="1"></use></g><g><use xlink:href="#e3wFT6Uh2" opacity="1" fill="#1765fc" fill-opacity="1"></use></g></g></g></svg>