<?xml version="1.0" encoding="UTF-8" standalone="no"?>
<!DOCTYPE svg PUBLIC "-//W3C//DTD SVG 1.1//EN" "http://www.w3.org/Graphics/SVG/1.1/DTD/svg11.dtd">
<svg version="1.1" xmlns="http://www.w3.org/2000/svg" xmlns:xlink="http://www.w3.org/1999/xlink" preserveAspectRatio="xMidYMid meet" viewBox="0 0 640 640" width="640" height="640"><defs><path d="M624.3 44.21C635.88 44.21 645.26 53.6 645.26 65.17C645.26 180.14 645.26 504.07 645.26 619.04C645.26 630.61 635.88 640 624.3 640C500.49 640 150.03 640 26.23 640C14.65 640 5.26 630.61 5.26 619.04C5.26 504.07 5.26 180.14 5.26 65.17C5.26 53.6 14.65 44.21 26.23 44.21C150.03 44.21 500.49 44.21 624.3 44.21Z" id="d1jJHVlsHy"></path><path d="M139.75 384.22L139.93 384.24L140.11 384.27L140.28 384.3L140.45 384.33L140.61 384.38L140.77 384.43L140.93 384.48L141.07 384.54L141.22 384.61L141.36 384.68L141.5 384.76L141.63 384.84L141.76 384.93L141.88 385.02L142 385.12L142.12 385.23L142.23 385.33L142.35 385.44L142.45 385.56L142.56 385.68L142.66 385.81L142.76 385.94L142.86 386.07L142.96 386.2L143.05 386.34L143.14 386.49L143.24 386.63L143.32 386.78L143.41 386.94L143.5 387.09L143.58 387.25L143.67 387.41L143.75 387.57L143.83 387.74L143.91 387.91L143.99 388.08L144.07 388.25L144.15 388.42L146.69 395.1L231.45 395.1L231.63 395.1L231.8 395.11L231.98 395.13L232.15 395.16L232.32 395.2L232.49 395.25L232.66 395.3L232.82 395.36L232.98 395.42L233.14 395.5L233.29 395.58L233.44 395.67L233.59 395.76L233.73 395.86L233.87 395.97L234.01 396.08L234.14 396.2L234.27 396.32L234.4 396.45L234.52 396.59L234.63 396.73L234.74 396.87L234.85 397.03L234.95 397.18L235.05 397.34L235.14 397.51L235.22 397.67L235.3 397.85L235.38 398.02L235.45 398.21L235.51 398.39L235.57 398.58L235.62 398.77L235.66 398.96L235.7 399.16L235.73 399.36L235.76 399.56L235.78 399.77L235.79 399.97L235.79 400.18L235.79 491.75L235.79 491.96L235.78 492.17L235.76 492.38L235.73 492.58L235.7 492.78L235.66 492.98L235.62 493.17L235.57 493.36L235.51 493.55L235.45 493.73L235.38 493.91L235.3 494.09L235.22 494.26L235.14 494.43L235.05 494.6L234.95 494.76L234.85 494.91L234.74 495.06L234.63 495.21L234.52 495.35L234.4 495.49L234.27 495.62L234.14 495.74L234.01 495.86L233.87 495.97L233.73 496.08L233.59 496.18L233.44 496.27L233.29 496.36L233.14 496.44L232.98 496.52L232.82 496.58L232.66 496.64L232.49 496.69L232.32 496.74L232.15 496.78L231.98 496.8L231.8 496.83L231.63 496.84L231.45 496.84L101.18 496.84L101.01 496.84L100.83 496.83L100.65 496.8L100.48 496.78L100.31 496.74L100.14 496.69L99.98 496.64L99.81 496.58L99.65 496.52L99.49 496.44L99.34 496.36L99.19 496.27L99.04 496.18L98.9 496.08L98.76 495.97L98.62 495.86L98.49 495.74L98.36 495.62L98.23 495.49L98.11 495.35L98 495.21L97.89 495.06L97.78 494.91L97.68 494.76L97.58 494.6L97.49 494.43L97.41 494.26L97.33 494.09L97.25 493.91L97.18 493.73L97.12 493.55L97.06 493.36L97.01 493.17L96.97 492.98L96.93 492.78L96.9 492.58L96.87 492.38L96.86 492.17L96.85 491.96L96.84 491.75L96.84 400.18L96.85 399.97L96.86 399.77L96.87 399.56L96.9 399.36L96.93 399.16L96.97 398.96L97.01 398.77L97.06 398.58L97.12 398.39L97.18 398.21L97.25 398.02L97.33 397.85L97.41 397.67L97.49 397.51L97.58 397.34L97.68 397.18L97.78 397.03L97.89 396.87L98 396.73L98.11 396.59L98.23 396.45L98.36 396.32L98.49 396.2L98.62 396.08L98.76 395.97L98.9 395.86L99.04 395.76L99.19 395.67L99.34 395.58L99.49 395.5L99.65 395.42L99.81 395.36L99.98 395.3L100.14 395.25L100.31 395.2L100.48 395.16L100.65 395.13L100.83 395.11L101.01 395.1L101.18 395.1L103.27 395.1L105.8 388.42L105.86 388.25L105.92 388.08L105.99 387.91L106.05 387.74L106.12 387.57L106.19 387.41L106.27 387.25L106.34 387.09L106.42 386.94L106.5 386.78L106.59 386.63L106.68 386.49L106.77 386.34L106.86 386.2L106.96 386.07L107.06 385.94L107.16 385.81L107.27 385.68L107.38 385.56L107.5 385.44L107.61 385.33L107.74 385.23L107.86 385.12L107.99 385.02L108.12 384.93L108.26 384.84L108.4 384.76L108.54 384.68L108.69 384.61L108.84 384.54L109 384.48L109.16 384.43L109.32 384.38L109.49 384.33L109.66 384.3L109.84 384.27L110.02 384.24L110.21 384.22L110.4 384.21L110.6 384.21L139.36 384.21L139.56 384.21L139.75 384.22Z" id="b4gZK7f6yg"></path><path d="M334.54 171.76L336.52 171.97L338.47 172.28L340.39 172.66L342.29 173.13L344.16 173.67L346 174.3L347.8 175L349.58 175.77L351.32 176.62L353.02 177.53L354.68 178.52L356.31 179.57L357.89 180.69L359.43 181.87L360.93 183.11L362.38 184.42L363.78 185.78L365.14 187.2L366.44 188.67L367.69 190.2L368.89 191.78L370.03 193.41L371.11 195.09L372.14 196.82L373.11 198.59L374.01 200.4L374.85 202.26L375.63 204.15L376.34 206.09L376.98 208.05L377.55 210.06L378.05 212.1L378.48 214.16L378.83 216.26L379.11 218.39L379.31 220.54L379.43 222.71L379.47 224.91L379.43 227.11L379.31 229.29L379.11 231.46L378.83 233.61L378.48 235.75L378.05 237.88L377.55 240.01L376.98 242.13L376.34 244.25L375.63 246.37L374.85 248.5L374.01 250.63L373.11 252.78L372.14 254.93L371.11 257.1L370.03 259.28L368.89 261.49L367.69 263.71L366.44 265.96L365.14 268.24L363.78 270.54L362.38 272.88L360.93 275.25L359.43 277.66L357.89 280.1L356.31 282.59L354.68 285.12L353.02 287.7L351.32 290.32L349.58 293L347.8 295.73L346 298.52L344.16 301.37L342.29 304.28L340.39 307.25L338.47 310.29L336.52 313.4L334.54 316.58L332.54 319.83L330.53 323.16L328.51 319.83L326.51 316.58L324.54 313.4L322.59 310.29L320.66 307.25L318.76 304.28L316.89 301.37L315.06 298.52L313.25 295.73L311.47 293L309.73 290.32L308.03 287.7L306.37 285.12L304.74 282.59L303.16 280.1L301.62 277.66L300.12 275.25L298.67 272.88L297.27 270.54L295.92 268.24L294.61 265.96L293.36 263.71L292.16 261.49L291.02 259.28L289.94 257.1L288.91 254.93L287.95 252.78L287.04 250.63L286.2 248.5L285.43 246.37L284.72 244.25L284.07 242.13L283.5 240.01L283 237.88L282.57 235.75L282.22 233.61L281.94 231.46L281.74 229.29L281.62 227.11L281.58 224.91L281.62 222.71L281.74 220.54L281.94 218.39L282.22 216.26L282.57 214.16L283 212.1L283.5 210.06L284.07 208.05L284.72 206.09L285.43 204.15L286.2 202.26L287.04 200.4L287.95 198.59L288.91 196.82L289.94 195.09L291.02 193.41L292.16 191.78L293.36 190.2L294.61 188.67L295.92 187.2L297.27 185.78L298.67 184.42L300.12 183.11L301.62 181.87L303.16 180.69L304.74 179.57L306.37 178.52L308.03 177.53L309.73 176.62L311.47 175.77L313.25 175L315.06 174.3L316.89 173.67L318.76 173.13L320.66 172.66L322.59 172.28L324.54 171.97L326.51 171.76L328.51 171.62L330.53 171.58L332.54 171.62L334.54 171.76ZM328.62 196.93L327.69 197.03L326.77 197.17L325.85 197.36L324.95 197.58L324.07 197.83L323.2 198.13L322.34 198.46L321.5 198.83L320.68 199.23L319.87 199.66L319.08 200.13L318.31 200.63L317.56 201.16L316.83 201.72L316.12 202.31L315.44 202.92L314.77 203.57L314.13 204.24L313.51 204.94L312.92 205.66L312.35 206.41L311.81 207.19L311.3 207.98L310.81 208.8L310.36 209.64L309.93 210.5L309.53 211.37L309.16 212.27L308.83 213.19L308.52 214.12L308.25 215.07L308.01 216.03L307.81 217.01L307.64 218.01L307.51 219.01L307.42 220.03L307.36 221.06L307.34 222.11L307.36 223.15L307.42 224.18L307.51 225.2L307.64 226.2L307.81 227.2L308.01 228.18L308.25 229.14L308.52 230.09L308.83 231.02L309.16 231.94L309.53 232.84L309.93 233.72L310.36 234.57L310.81 235.41L311.3 236.23L311.81 237.03L312.35 237.8L312.92 238.55L313.51 239.27L314.13 239.97L314.77 240.64L315.44 241.29L316.12 241.9L316.83 242.49L317.56 243.05L318.31 243.58L319.08 244.08L319.87 244.55L320.68 244.98L321.5 245.38L322.34 245.75L323.2 246.08L324.07 246.38L324.95 246.63L325.85 246.86L326.77 247.04L327.69 247.18L328.62 247.28L329.57 247.35L330.53 247.37L331.48 247.35L332.43 247.28L333.36 247.18L334.29 247.04L335.2 246.86L336.1 246.63L336.98 246.38L337.85 246.08L338.71 245.75L339.55 245.38L340.37 244.98L341.18 244.55L341.97 244.08L342.74 243.58L343.49 243.05L344.22 242.49L344.93 241.9L345.62 241.29L346.28 240.64L346.92 239.97L347.54 239.27L348.13 238.55L348.7 237.8L349.24 237.03L349.75 236.23L350.24 235.41L350.7 234.57L351.12 233.72L351.52 232.84L351.89 231.94L352.23 231.02L352.53 230.09L352.8 229.14L353.04 228.18L353.24 227.2L353.41 226.2L353.54 225.2L353.64 224.18L353.69 223.15L353.71 222.11L353.69 221.06L353.64 220.03L353.54 219.01L353.41 218.01L353.24 217.01L353.04 216.03L352.8 215.07L352.53 214.12L352.23 213.19L351.89 212.27L351.52 211.37L351.12 210.5L350.7 209.64L350.24 208.8L349.75 207.98L349.24 207.19L348.7 206.41L348.13 205.66L347.54 204.94L346.92 204.24L346.28 203.57L345.62 202.92L344.93 202.31L344.22 201.72L343.49 201.16L342.74 200.63L341.97 200.13L341.18 199.66L340.37 199.23L339.55 198.83L338.71 198.46L337.85 198.13L336.98 197.83L336.1 197.58L335.2 197.36L334.29 197.17L333.36 197.03L332.43 196.93L331.48 196.86L330.53 196.84L329.57 196.86L328.62 196.93Z" id="c6bfLfejZ"></path><path d="M475.8 367.91L475.9 367.92L476.01 367.94L476.11 367.97L476.2 368L476.29 368.03L476.38 368.07L476.47 368.12L476.56 368.17L476.64 368.23L476.72 368.29L476.8 368.35L476.87 368.42L476.95 368.5L477.02 368.57L477.09 368.66L477.15 368.74L477.22 368.83L477.28 368.93L477.35 369.02L477.41 369.12L477.47 369.23L477.52 369.34L477.58 369.45L477.63 369.56L477.69 369.68L477.74 369.8L477.79 369.92L477.84 370.04L477.89 370.17L477.94 370.3L477.99 370.43L478.04 370.57L478.08 370.71L478.13 370.84L478.18 370.98L478.22 371.13L478.27 371.27L478.32 371.41L480.68 380.55L481.43 380.79L483.07 381.39L484.68 382.05L486.26 382.78L487.81 383.56L487.93 383.63L495.91 378.88L496.05 378.81L496.18 378.74L496.31 378.68L496.44 378.61L496.56 378.55L496.69 378.49L496.82 378.43L496.94 378.37L497.07 378.31L497.19 378.26L497.31 378.2L497.43 378.16L497.55 378.11L497.67 378.07L497.79 378.03L497.9 377.99L498.02 377.95L498.13 377.92L498.24 377.9L498.35 377.87L498.46 377.85L498.57 377.84L498.68 377.82L498.78 377.82L498.89 377.81L498.99 377.81L499.09 377.82L499.19 377.83L499.29 377.85L499.39 377.87L499.48 377.89L499.57 377.92L499.67 377.96L499.76 378L499.85 378.05L499.93 378.1L500.02 378.16L500.1 378.23L500.19 378.3L500.27 378.38L511.88 390.33L511.96 390.41L512.03 390.5L512.09 390.59L512.15 390.68L512.21 390.77L512.26 390.86L512.3 390.96L512.34 391.05L512.37 391.15L512.4 391.25L512.42 391.36L512.44 391.46L512.45 391.57L512.46 391.67L512.47 391.78L512.47 391.89L512.46 392L512.45 392.12L512.44 392.23L512.42 392.35L512.4 392.46L512.38 392.58L512.35 392.7L512.32 392.82L512.28 392.94L512.24 393.06L512.2 393.18L512.15 393.3L512.11 393.43L512.05 393.55L512 393.67L511.94 393.8L511.88 393.92L511.82 394.05L511.75 394.18L511.69 394.3L511.62 394.43L511.55 394.56L511.47 394.68L511.4 394.81L506.78 403L506.88 403.18L507.64 404.77L508.35 406.4L508.99 408.06L509.57 409.75L509.8 410.51L518.68 412.95L518.83 412.98L518.96 413.02L519.1 413.05L519.24 413.09L519.37 413.13L519.51 413.18L519.64 413.22L519.77 413.26L519.89 413.31L520.02 413.36L520.14 413.41L520.26 413.46L520.37 413.51L520.49 413.57L520.6 413.63L520.7 413.69L520.81 413.75L520.91 413.81L521.01 413.87L521.1 413.94L521.19 414.01L521.28 414.08L521.37 414.15L521.44 414.23L521.52 414.31L521.59 414.39L521.66 414.47L521.72 414.55L521.78 414.64L521.84 414.73L521.89 414.82L521.93 414.92L521.97 415.01L522.01 415.11L522.04 415.21L522.06 415.32L522.08 415.43L522.09 415.54L522.1 415.65L522.11 415.76L522.11 432.66L522.1 432.77L522.09 432.88L522.08 432.99L522.06 433.1L522.04 433.2L522.01 433.3L521.97 433.39L521.93 433.49L521.89 433.58L521.84 433.66L521.78 433.75L521.72 433.83L521.66 433.91L521.59 433.99L521.52 434.07L521.44 434.14L521.37 434.21L521.28 434.28L521.19 434.35L521.1 434.41L521.01 434.48L520.91 434.54L520.81 434.6L520.7 434.66L520.6 434.72L520.49 434.77L520.37 434.83L520.26 434.88L520.14 434.93L520.02 434.99L519.89 435.04L519.77 435.09L519.64 435.14L519.51 435.19L519.37 435.24L519.24 435.28L519.1 435.33L518.96 435.38L518.83 435.43L518.68 435.47L509.8 437.91L509.57 438.67L508.99 440.36L508.35 442.02L507.64 443.65L506.88 445.24L506.79 445.4L511.4 453.58L511.47 453.71L511.55 453.83L511.62 453.96L511.69 454.09L511.75 454.21L511.82 454.34L511.88 454.46L511.94 454.59L512 454.71L512.05 454.84L512.11 454.96L512.15 455.08L512.2 455.21L512.24 455.33L512.28 455.45L512.32 455.57L512.35 455.69L512.38 455.81L512.4 455.92L512.42 456.04L512.44 456.16L512.45 456.27L512.46 456.38L512.47 456.49L512.47 456.6L512.46 456.71L512.45 456.82L512.44 456.93L512.42 457.03L512.4 457.13L512.37 457.23L512.34 457.33L512.3 457.43L512.26 457.53L512.21 457.62L512.15 457.71L512.09 457.8L512.03 457.89L511.96 457.98L511.88 458.06L500.27 470.01L500.19 470.08L500.1 470.16L500.02 470.22L499.93 470.28L499.85 470.34L499.76 470.39L499.67 470.43L499.57 470.46L499.48 470.5L499.39 470.52L499.29 470.54L499.19 470.56L499.09 470.57L498.99 470.57L498.89 470.58L498.78 470.57L498.68 470.56L498.57 470.55L498.46 470.54L498.35 470.52L498.24 470.49L498.13 470.46L498.02 470.43L497.9 470.4L497.79 470.36L497.67 470.32L497.55 470.28L497.43 470.23L497.31 470.18L497.19 470.13L497.07 470.08L496.94 470.02L496.82 469.96L496.69 469.9L496.56 469.84L496.44 469.78L496.31 469.71L496.18 469.64L496.05 469.58L495.91 469.51L487.96 464.77L487.81 464.86L486.26 465.65L484.68 466.37L483.07 467.03L481.43 467.63L480.68 467.87L478.32 477.01L478.27 477.15L478.22 477.3L478.18 477.44L478.13 477.58L478.08 477.72L478.04 477.85L477.99 477.99L477.94 478.12L477.89 478.25L477.84 478.38L477.79 478.5L477.74 478.62L477.69 478.74L477.63 478.86L477.58 478.97L477.52 479.08L477.47 479.19L477.41 479.3L477.35 479.4L477.28 479.49L477.22 479.59L477.15 479.68L477.09 479.76L477.02 479.85L476.95 479.92L476.87 480L476.8 480.07L476.72 480.13L476.64 480.19L476.56 480.25L476.47 480.3L476.38 480.35L476.29 480.39L476.2 480.42L476.11 480.45L476.01 480.48L475.9 480.5L475.8 480.51L475.69 480.52L475.58 480.53L459.16 480.53L459.05 480.52L458.94 480.51L458.83 480.5L458.73 480.48L458.62 480.45L458.53 480.42L458.43 480.39L458.34 480.35L458.24 480.3L458.15 480.25L458.07 480.19L457.98 480.13L457.9 480.07L457.82 480L457.74 479.92L457.67 479.85L457.59 479.76L457.52 479.68L457.45 479.59L457.39 479.49L457.32 479.4L457.26 479.3L457.2 479.19L457.14 479.08L457.08 478.97L457.03 478.86L456.97 478.74L456.92 478.62L456.87 478.5L456.82 478.38L456.77 478.25L456.73 478.12L456.69 477.99L456.64 477.85L456.6 477.72L456.56 477.58L456.53 477.44L456.49 477.3L456.45 477.15L456.42 477.01L454.05 467.87L453.31 467.63L451.67 467.03L450.06 466.37L448.48 465.65L446.93 464.86L446.74 464.76L438.82 469.47L438.7 469.55L438.58 469.63L438.45 469.7L438.33 469.77L438.21 469.84L438.09 469.91L437.96 469.97L437.84 470.04L437.72 470.09L437.6 470.15L437.48 470.2L437.36 470.25L437.24 470.3L437.12 470.34L437 470.38L436.89 470.42L436.77 470.45L436.66 470.48L436.54 470.51L436.43 470.53L436.32 470.55L436.21 470.56L436.1 470.57L435.99 470.57L435.88 470.58L435.78 470.57L435.67 470.56L435.57 470.55L435.47 470.53L435.37 470.51L435.27 470.48L435.17 470.44L435.08 470.4L434.99 470.36L434.9 470.31L434.81 470.25L434.72 470.19L434.63 470.12L434.55 470.05L434.47 469.97L422.86 458.03L422.78 457.94L422.71 457.86L422.65 457.77L422.59 457.68L422.54 457.59L422.49 457.5L422.45 457.41L422.41 457.31L422.38 457.22L422.36 457.12L422.34 457.02L422.32 456.92L422.31 456.81L422.31 456.71L422.3 456.6L422.31 456.5L422.31 456.39L422.33 456.28L422.34 456.17L422.36 456.06L422.38 455.94L422.41 455.83L422.44 455.71L422.47 455.59L422.51 455.47L422.55 455.35L422.59 455.23L422.64 455.11L422.69 454.98L422.74 454.86L422.79 454.73L422.84 454.6L422.9 454.48L422.96 454.35L423.02 454.21L423.08 454.08L423.14 453.95L423.21 453.82L423.27 453.68L423.34 453.55L427.94 445.38L427.86 445.24L427.09 443.65L426.39 442.02L425.74 440.36L425.16 438.67L424.93 437.91L416.05 435.47L415.91 435.43L415.77 435.38L415.63 435.33L415.5 435.28L415.36 435.24L415.23 435.19L415.1 435.14L414.97 435.09L414.85 435.04L414.72 434.99L414.6 434.93L414.48 434.88L414.36 434.83L414.25 434.77L414.14 434.72L414.03 434.66L413.93 434.6L413.83 434.54L413.73 434.48L413.63 434.41L413.54 434.35L413.46 434.28L413.37 434.21L413.29 434.14L413.22 434.07L413.14 433.99L413.08 433.91L413.01 433.83L412.95 433.75L412.9 433.66L412.85 433.58L412.81 433.49L412.77 433.39L412.73 433.3L412.7 433.2L412.68 433.1L412.66 432.99L412.64 432.88L412.63 432.77L412.63 432.66L412.63 415.76L412.63 415.65L412.64 415.54L412.66 415.43L412.68 415.32L412.7 415.21L412.73 415.11L412.77 415.01L412.81 414.92L412.85 414.82L412.9 414.73L412.95 414.64L413.01 414.55L413.08 414.47L413.14 414.39L413.22 414.31L413.29 414.23L413.37 414.15L413.46 414.08L413.54 414.01L413.63 413.94L413.73 413.87L413.83 413.81L413.93 413.75L414.03 413.69L414.14 413.63L414.25 413.57L414.36 413.51L414.48 413.46L414.6 413.41L414.72 413.36L414.85 413.31L414.97 413.26L415.1 413.22L415.23 413.18L415.36 413.13L415.5 413.09L415.63 413.05L415.77 413.02L415.91 412.98L416.05 412.95L424.93 410.51L425.16 409.75L425.74 408.06L426.39 406.4L427.09 404.77L427.86 403.18L427.94 403.02L423.34 394.84L423.27 394.71L423.21 394.57L423.14 394.44L423.08 394.3L423.02 394.17L422.96 394.04L422.9 393.91L422.84 393.78L422.79 393.66L422.74 393.53L422.69 393.4L422.64 393.28L422.59 393.16L422.55 393.04L422.51 392.91L422.47 392.8L422.44 392.68L422.41 392.56L422.38 392.45L422.36 392.33L422.34 392.22L422.33 392.11L422.31 392L422.31 391.89L422.3 391.78L422.31 391.68L422.31 391.57L422.32 391.47L422.34 391.37L422.36 391.27L422.38 391.17L422.41 391.08L422.45 390.98L422.49 390.89L422.54 390.8L422.59 390.71L422.65 390.62L422.71 390.53L422.78 390.45L422.86 390.36L434.47 378.42L434.55 378.34L434.63 378.26L434.72 378.2L434.81 378.13L434.9 378.08L434.99 378.03L435.08 377.98L435.17 377.94L435.27 377.91L435.37 377.88L435.47 377.86L435.57 377.84L435.67 377.83L435.78 377.82L435.88 377.81L435.99 377.81L436.1 377.82L436.21 377.83L436.32 377.84L436.43 377.86L436.54 377.88L436.66 377.9L436.77 377.93L436.89 377.97L437 378L437.12 378.04L437.24 378.09L437.36 378.13L437.48 378.18L437.6 378.24L437.72 378.29L437.84 378.35L437.96 378.41L438.09 378.48L438.21 378.54L438.33 378.61L438.45 378.69L438.58 378.76L438.7 378.84L438.82 378.91L446.77 383.65L446.93 383.56L448.48 382.78L450.06 382.05L451.67 381.39L453.31 380.79L454.05 380.55L456.42 371.41L456.45 371.27L456.49 371.13L456.53 370.98L456.56 370.84L456.6 370.71L456.64 370.57L456.69 370.43L456.73 370.3L456.77 370.17L456.82 370.04L456.87 369.92L456.92 369.8L456.97 369.68L457.03 369.56L457.08 369.45L457.14 369.34L457.2 369.23L457.26 369.12L457.32 369.02L457.39 368.93L457.45 368.83L457.52 368.74L457.59 368.66L457.67 368.57L457.74 368.5L457.82 368.42L457.9 368.35L457.98 368.29L458.07 368.23L458.15 368.17L458.24 368.12L458.34 368.07L458.43 368.03L458.53 368L458.62 367.97L458.73 367.94L458.83 367.92L458.94 367.91L459.05 367.9L459.16 367.89L475.58 367.89L475.69 367.9L475.8 367.91ZM465.4 399.65L464.44 399.75L463.48 399.89L462.54 400.07L461.61 400.29L460.7 400.54L459.8 400.83L458.91 401.15L458.05 401.51L457.2 401.9L456.36 402.32L455.55 402.78L454.75 403.26L453.98 403.78L453.23 404.33L452.49 404.9L451.78 405.5L451.1 406.13L450.44 406.79L449.8 407.47L449.19 408.18L448.6 408.91L448.04 409.66L447.51 410.44L447.01 411.23L446.54 412.05L446.09 412.89L445.68 413.74L445.3 414.62L444.96 415.51L444.64 416.42L444.36 417.35L444.12 418.29L443.91 419.25L443.73 420.21L443.6 421.2L443.5 422.19L443.44 423.19L443.42 424.21L443.44 425.23L443.5 426.23L443.6 427.23L443.73 428.21L443.91 429.18L444.12 430.13L444.36 431.07L444.64 432L444.96 432.91L445.3 433.8L445.68 434.68L446.09 435.53L446.54 436.37L447.01 437.19L447.51 437.99L448.04 438.76L448.6 439.51L449.19 440.24L449.8 440.95L450.44 441.63L451.1 442.29L451.78 442.92L452.49 443.52L453.23 444.09L453.98 444.64L454.75 445.16L455.55 445.64L456.36 446.1L457.2 446.52L458.05 446.91L458.91 447.27L459.8 447.59L460.7 447.88L461.61 448.13L462.54 448.35L463.48 448.53L464.44 448.67L465.4 448.77L466.38 448.83L467.37 448.85L468.36 448.83L469.33 448.77L470.3 448.67L471.25 448.53L472.19 448.35L473.12 448.13L474.04 447.88L474.94 447.59L475.82 447.27L476.69 446.91L477.54 446.52L478.37 446.1L479.19 445.64L479.98 445.16L480.76 444.64L481.51 444.09L482.24 443.52L482.95 442.92L483.64 442.29L484.3 441.63L484.94 440.95L485.55 440.24L486.14 439.51L486.7 438.76L487.23 437.99L487.73 437.19L488.2 436.37L488.64 435.53L489.05 434.68L489.43 433.8L489.78 432.91L490.09 432L490.37 431.07L490.62 430.13L490.83 429.18L491 428.21L491.14 427.23L491.24 426.23L491.3 425.23L491.32 424.21L491.3 423.19L491.24 422.19L491.14 421.2L491 420.21L490.83 419.25L490.62 418.29L490.37 417.35L490.09 416.42L489.78 415.51L489.43 414.62L489.05 413.74L488.64 412.89L488.2 412.05L487.73 411.23L487.23 410.44L486.7 409.66L486.14 408.91L485.55 408.18L484.94 407.47L484.3 406.79L483.64 406.13L482.95 405.5L482.24 404.9L481.51 404.33L480.76 403.78L479.98 403.26L479.19 402.78L478.37 402.32L477.54 401.9L476.69 401.51L475.82 401.15L474.94 400.83L474.04 400.54L473.12 400.29L472.19 400.07L471.25 399.89L470.3 399.75L469.33 399.65L468.36 399.59L467.37 399.57L466.38 399.59L465.4 399.65Z" id="a18lcJIQQy"></path></defs><g><g><g><use xlink:href="#d1jJHVlsHy" opacity="1" fill="#ffffff" fill-opacity="1"></use></g><g><use xlink:href="#b4gZK7f6yg" opacity="1" fill="#1765fc" fill-opacity="1"></use></g><g><use xlink:href="#c6bfLfejZ" opacity="1" fill="#1765fc" fill-opacity="1"></use></g><g><use xlink:href="#a18lcJIQQy" opacity="1" fill="#1765fc" fill-opacity="1"></use></g></g></g></svg>